<svg version="1.1" width="250" height="80" viewBox="0 0 250 80" xmlns="http://www.w3.org/2000/svg" xmlns:xlink="http://www.w3.org/1999/xlink" id="Livello_1" overflow="hidden"><g><path d=" M 88.231 24.716 C 87.45 25.566 87.057 26.694 87.057 28.1 L 87.057 29.034 L 90.578 29.034 C 91.062 29.034 91.451 29.171 91.752 29.449 C 92.053 29.723 92.202 30.093 92.202 30.554 C 92.202 30.969 92.053 31.312 91.752 31.591 C 91.451 31.865 91.062 32.006 90.578 32.006 L 87.057 32.006 L 87.057 45.474 C 87.057 46.004 86.897 46.431 86.573 46.751 C 86.253 47.075 85.803 47.235 85.228 47.235 C 84.767 47.235 84.371 47.075 84.035 46.751 C 83.703 46.431 83.536 46.004 83.536 45.474 L 83.536 32.006 L 82.05 32.006 C 81.566 32.006 81.177 31.869 80.876 31.591 C 80.575 31.313 80.426 30.97 80.426 30.554 C 80.426 30.093 80.575 29.727 80.876 29.449 C 81.177 29.171 81.566 29.034 82.05 29.034 L 83.536 29.034 L 83.536 28.447 C 83.536 26.812 83.864 25.379 84.519 24.148 C 85.174 22.917 86.097 21.964 87.282 21.282 C 88.467 20.604 89.82 20.265 91.337 20.265 C 91.844 20.265 92.263 20.414 92.598 20.715 C 92.93 21.016 93.097 21.393 93.097 21.854 C 93.097 22.315 92.929 22.692 92.598 22.993 C 92.263 23.29 91.843 23.443 91.337 23.443 C 90.048 23.435 89.016 23.862 88.231 24.716"/><path d=" M 107.178 43.412 C 108.112 42.848 108.84 42.078 109.369 41.099 C 109.899 40.12 110.162 39.022 110.162 37.803 C 110.162 36.584 109.895 35.478 109.369 34.488 C 108.839 33.497 108.108 32.724 107.178 32.156 C 106.244 31.592 105.204 31.31 104.053 31.31 C 102.902 31.31 101.862 31.596 100.928 32.156 C 99.994 32.72 99.259 33.497 98.718 34.488 C 98.177 35.479 97.906 36.584 97.906 37.803 C 97.906 39.022 98.177 40.124 98.718 41.099 C 99.259 42.078 99.995 42.848 100.928 43.412 C 101.862 43.976 102.902 44.258 104.053 44.258 C 105.204 44.258 106.249 43.976 107.178 43.412 M 108.87 29.461 C 110.311 30.303 111.446 31.454 112.288 32.914 C 113.126 34.377 113.549 36.005 113.549 37.8 L 113.549 45.502 C 113.549 46.009 113.381 46.428 113.05 46.763 C 112.715 47.095 112.295 47.262 111.792 47.262 C 111.285 47.262 110.862 47.094 110.531 46.763 C 110.196 46.428 110.032 46.008 110.032 45.502 L 110.032 44.225 C 109.224 45.216 108.248 45.986 107.098 46.538 C 105.947 47.091 104.705 47.365 103.371 47.365 C 101.713 47.365 100.212 46.95 98.863 46.123 C 97.518 45.292 96.458 44.149 95.685 42.686 C 94.915 41.223 94.526 39.595 94.526 37.8 C 94.526 36.005 94.941 34.374 95.768 32.914 C 96.595 31.454 97.742 30.304 99.205 29.461 C 100.668 28.623 102.284 28.2 104.056 28.2 C 105.829 28.199 107.434 28.622 108.87 29.461"/><path d=" M 128.184 44.258 C 129.335 44.258 130.379 43.976 131.309 43.412 C 132.243 42.848 132.978 42.071 133.519 41.08 C 134.06 40.089 134.331 38.988 134.331 37.765 C 134.331 36.546 134.06 35.444 133.519 34.469 C 132.978 33.49 132.242 32.72 131.309 32.156 C 130.379 31.592 129.335 31.31 128.184 31.31 C 127.033 31.31 125.993 31.592 125.059 32.156 C 124.125 32.72 123.397 33.49 122.868 34.469 C 122.338 35.448 122.075 36.546 122.075 37.765 C 122.075 38.984 122.342 40.09 122.868 41.08 C 123.398 42.071 124.129 42.848 125.059 43.412 C 125.993 43.976 127.033 44.258 128.184 44.258 M 120.452 20.261 C 120.959 20.261 121.378 20.421 121.713 20.745 C 122.048 21.065 122.216 21.492 122.216 22.022 L 122.216 31.343 C 123.02 30.356 123.999 29.582 125.15 29.03 C 126.301 28.477 127.543 28.203 128.881 28.203 C 130.539 28.203 132.04 28.618 133.389 29.445 C 134.734 30.272 135.794 31.419 136.563 32.879 C 137.337 34.342 137.722 35.97 137.722 37.765 C 137.722 39.56 137.307 41.191 136.48 42.651 C 135.653 44.114 134.506 45.261 133.043 46.104 C 131.583 46.942 129.964 47.365 128.192 47.365 C 126.42 47.365 124.812 46.946 123.375 46.104 C 121.934 45.262 120.795 44.115 119.957 42.651 C 119.119 41.188 118.696 39.56 118.696 37.765 L 118.696 22.018 C 118.696 21.488 118.856 21.061 119.18 20.741 C 119.495 20.421 119.922 20.261 120.452 20.261"/><path d=" M 147.086 32.551 C 146.038 33.473 145.375 34.704 145.101 36.244 L 156.598 36.244 C 156.392 34.701 155.817 33.47 154.872 32.551 C 153.927 31.633 152.696 31.171 151.179 31.171 C 149.495 31.172 148.134 31.633 147.086 32.551 M 159.327 38.576 C 159.026 38.866 158.649 39.007 158.188 39.007 L 145.067 39.007 C 145.322 40.619 146.05 41.919 147.258 42.909 C 148.466 43.899 149.945 44.391 151.698 44.391 C 152.388 44.391 153.108 44.265 153.855 44.01 C 154.602 43.758 155.219 43.446 155.703 43.076 C 156.027 42.824 156.404 42.695 156.842 42.695 C 157.28 42.695 157.623 42.809 157.879 43.042 C 158.294 43.389 158.5 43.778 158.5 44.216 C 158.5 44.631 158.313 44.974 157.947 45.253 C 157.166 45.874 156.194 46.381 155.028 46.77 C 153.866 47.163 152.753 47.357 151.697 47.357 C 149.807 47.357 148.115 46.949 146.621 46.13 C 145.123 45.314 143.957 44.179 143.115 42.731 C 142.277 41.279 141.854 39.637 141.854 37.792 C 141.854 35.951 142.25 34.297 143.047 32.834 C 143.84 31.374 144.945 30.235 146.362 29.416 C 147.776 28.6 149.384 28.193 151.179 28.193 C 152.951 28.193 154.483 28.586 155.771 29.367 C 157.059 30.152 158.05 31.246 158.74 32.648 C 159.434 34.054 159.777 35.662 159.777 37.484 C 159.776 37.928 159.624 38.29 159.327 38.576"/><path d=" M 176.643 28.687 C 177.333 29.057 177.68 29.514 177.68 30.067 C 177.68 30.227 177.669 30.345 177.646 30.414 C 177.436 31.149 176.975 31.519 176.263 31.519 C 176.149 31.519 175.973 31.496 175.745 31.45 C 174.827 31.29 174.076 31.21 173.5 31.21 C 171.842 31.21 170.508 31.591 169.495 32.349 C 168.481 33.107 167.978 34.132 167.978 35.421 L 167.978 45.505 C 167.978 46.058 167.833 46.484 167.547 46.782 C 167.257 47.083 166.827 47.232 166.251 47.232 C 165.698 47.232 165.272 47.087 164.974 46.801 C 164.673 46.515 164.524 46.085 164.524 45.505 L 164.524 30.07 C 164.524 29.517 164.673 29.091 164.974 28.793 C 165.271 28.496 165.698 28.343 166.251 28.343 C 167.402 28.343 167.977 28.918 167.977 30.069 L 167.977 30.724 C 168.667 29.916 169.52 29.283 170.53 28.822 C 171.544 28.361 172.626 28.132 173.777 28.132 C 174.997 28.134 175.954 28.317 176.643 28.687"/><path d=" M 190.987 44.258 C 192.138 44.258 193.182 43.976 194.112 43.412 C 195.046 42.848 195.781 42.071 196.322 41.08 C 196.863 40.089 197.134 38.988 197.134 37.765 C 197.134 36.546 196.863 35.444 196.322 34.469 C 195.781 33.49 195.045 32.72 194.112 32.156 C 193.182 31.592 192.138 31.31 190.987 31.31 C 189.836 31.31 188.796 31.592 187.862 32.156 C 186.928 32.72 186.2 33.49 185.671 34.469 C 185.141 35.448 184.878 36.546 184.878 37.765 C 184.878 38.984 185.145 40.09 185.671 41.08 C 186.201 42.071 186.932 42.848 187.862 43.412 C 188.796 43.976 189.837 44.258 190.987 44.258 M 183.255 20.261 C 183.762 20.261 184.181 20.421 184.516 20.745 C 184.851 21.065 185.019 21.492 185.019 22.022 L 185.019 31.343 C 185.823 30.356 186.802 29.582 187.953 29.03 C 189.104 28.478 190.346 28.203 191.684 28.203 C 193.342 28.203 194.843 28.618 196.188 29.445 C 197.537 30.272 198.593 31.419 199.362 32.879 C 200.136 34.342 200.52 35.97 200.52 37.765 C 200.52 39.56 200.105 41.191 199.278 42.651 C 198.451 44.114 197.304 45.261 195.841 46.104 C 194.378 46.942 192.762 47.365 190.99 47.365 C 189.218 47.365 187.61 46.946 186.173 46.104 C 184.732 45.262 183.593 44.115 182.755 42.651 C 181.917 41.188 181.494 39.56 181.494 37.765 L 181.494 22.018 C 181.494 21.488 181.654 21.061 181.978 20.741 C 182.299 20.421 182.725 20.261 183.255 20.261" fill="#FF9350"/><path d=" M 209.889 32.551 C 208.841 33.473 208.178 34.704 207.904 36.244 L 219.401 36.244 C 219.195 34.701 218.62 33.47 217.675 32.551 C 216.73 31.633 215.499 31.171 213.982 31.171 C 212.298 31.172 210.937 31.633 209.889 32.551 M 222.13 38.576 C 221.829 38.866 221.452 39.007 220.991 39.007 L 207.87 39.007 C 208.125 40.619 208.853 41.919 210.061 42.909 C 211.269 43.9 212.748 44.391 214.501 44.391 C 215.191 44.391 215.911 44.265 216.658 44.01 C 217.405 43.758 218.022 43.446 218.506 43.076 C 218.83 42.824 219.207 42.695 219.645 42.695 C 220.083 42.695 220.426 42.809 220.682 43.042 C 221.094 43.389 221.303 43.778 221.303 44.216 C 221.303 44.631 221.116 44.974 220.75 45.253 C 219.969 45.874 218.997 46.381 217.831 46.77 C 216.669 47.163 215.556 47.357 214.5 47.357 C 212.61 47.357 210.918 46.949 209.424 46.13 C 207.93 45.314 206.76 44.179 205.918 42.731 C 205.08 41.279 204.657 39.637 204.657 37.792 C 204.657 35.951 205.053 34.297 205.85 32.834 C 206.643 31.374 207.748 30.235 209.165 29.416 C 210.579 28.6 212.187 28.193 213.982 28.193 C 215.754 28.193 217.286 28.586 218.574 29.367 C 219.862 30.152 220.853 31.246 221.543 32.648 C 222.237 34.054 222.58 35.662 222.58 37.484 C 222.58 37.928 222.427 38.29 222.13 38.576" fill="#FF9350"/><path d=" M 231.554 32.551 C 230.506 33.473 229.843 34.704 229.569 36.244 L 241.066 36.244 C 240.86 34.701 240.285 33.47 239.34 32.551 C 238.395 31.633 237.164 31.171 235.647 31.171 C 233.967 31.172 232.602 31.633 231.554 32.551 M 243.795 38.576 C 243.494 38.866 243.117 39.007 242.656 39.007 L 229.535 39.007 C 229.79 40.619 230.518 41.919 231.726 42.909 C 232.934 43.9 234.413 44.391 236.166 44.391 C 236.856 44.391 237.576 44.265 238.323 44.01 C 239.07 43.758 239.687 43.446 240.171 43.076 C 240.495 42.824 240.872 42.695 241.31 42.695 C 241.748 42.695 242.091 42.809 242.347 43.042 C 242.762 43.389 242.968 43.778 242.968 44.216 C 242.968 44.631 242.781 44.974 242.415 45.253 C 241.634 45.874 240.662 46.381 239.496 46.77 C 238.334 47.163 237.221 47.357 236.165 47.357 C 234.275 47.357 232.583 46.949 231.089 46.13 C 229.595 45.314 228.425 44.179 227.583 42.731 C 226.745 41.279 226.322 39.637 226.322 37.792 C 226.322 35.951 226.718 34.297 227.515 32.834 C 228.308 31.374 229.417 30.235 230.83 29.416 C 232.244 28.6 233.852 28.193 235.647 28.193 C 237.419 28.193 238.951 28.586 240.239 29.367 C 241.527 30.152 242.518 31.246 243.208 32.648 C 243.902 34.054 244.245 35.662 244.245 37.484 C 244.245 37.928 244.092 38.29 243.795 38.576" fill="#FF9350"/><path d=" M 56.25 14.087 L 17.992 14.087 C 14.257 14.087 11.205 17.143 11.205 20.874 L 11.205 59.132 C 11.205 62.867 14.258 65.919 17.992 65.919 L 56.25 65.919 C 59.985 65.919 63.037 62.863 63.037 59.132 L 63.037 20.875 C 63.037 17.144 59.984 14.087 56.25 14.087" fill="#6E618A"/><path d=" M 7.897 45.177 L 7.893 45.173 C 5.042 42.322 5.042 37.704 7.893 34.857 L 7.912 34.838 C 10.763 31.987 15.381 31.987 18.228 34.838 L 18.232 34.842 C 21.083 37.693 21.083 42.311 18.232 45.158 L 18.213 45.177 C 15.366 48.023 10.748 48.023 7.897 45.177" fill="#FF7546"/><path d=" M 44.459 15.901 C 44.459 17.768 43.746 19.632 42.321 21.057 L 42.31 21.08 C 41.323 22.067 40.123 22.719 38.85 23.016 L 38.816 23.016 C 38.507 23.05 38.199 23.1 37.89 23.184 C 37.879 23.173 37.867 23.184 37.856 23.184 C 36.583 23.481 35.383 24.133 34.4 25.12 L 34.377 25.143 C 33.199 26.321 32.51 27.792 32.308 29.327 L 32.297 29.327 C 32.034 30.707 31.371 32.025 30.3 33.096 L 30.277 33.119 C 27.426 35.958 22.815 35.958 19.961 33.119 L 19.95 33.108 C 17.111 30.257 17.111 25.642 19.95 22.792 L 19.973 22.769 C 21.044 21.698 22.362 21.035 23.742 20.772 L 23.742 20.76 C 25.274 20.569 26.76 19.868 27.938 18.691 L 27.949 18.668 C 28.936 17.681 29.588 16.481 29.885 15.212 L 29.885 15.2 C 29.969 14.891 30.015 14.571 30.053 14.251 L 30.053 14.217 C 30.35 12.944 31.002 11.744 31.989 10.761 L 32.012 10.75 C 34.863 7.899 39.478 7.899 42.328 10.75 C 43.746 12.171 44.459 14.038 44.459 15.901" fill="#FF7546"/><path d=" M 31.963 69.254 L 31.959 69.25 C 29.108 66.399 29.108 61.781 31.959 58.934 L 31.963 58.93 C 34.814 56.079 39.432 56.079 42.279 58.93 L 42.283 58.934 C 45.134 61.785 45.134 66.403 42.283 69.25 L 42.279 69.254 C 39.432 72.101 34.813 72.101 31.963 69.254" fill="#FFAC49"/><path d=" M 66.528 45.291 L 66.517 45.291 C 65.446 46.362 64.128 47.025 62.748 47.299 C 62.603 47.31 62.462 47.333 62.321 47.356 C 60.941 47.63 59.623 48.293 58.552 49.364 L 58.552 49.375 C 57.363 50.553 56.673 52.035 56.483 53.582 L 56.472 53.582 C 56.198 54.962 55.535 56.28 54.464 57.351 L 54.453 57.351 C 51.614 60.202 46.987 60.202 44.137 57.351 C 41.286 54.5 41.286 49.874 44.137 47.035 L 44.137 47.024 C 45.208 45.953 46.526 45.29 47.906 45.016 L 47.906 44.993 C 49.438 44.802 50.924 44.101 52.102 42.924 L 52.113 42.924 C 53.184 41.853 53.847 40.535 54.11 39.155 L 54.133 39.155 C 54.335 37.623 55.025 36.148 56.202 34.971 L 56.202 34.96 C 59.053 32.121 63.668 32.121 66.518 34.96 L 66.529 34.971 C 69.371 37.829 69.371 42.44 66.528 45.291" fill="#FBE0B6"/><path d=" M 44.005 33.138 L 44.001 33.134 C 41.15 30.283 41.15 25.665 44.001 22.818 C 46.852 19.971 51.47 19.967 54.317 22.818 L 54.321 22.822 C 57.172 25.673 57.172 30.291 54.321 33.138 C 51.475 35.989 46.856 35.989 44.005 33.138" fill="#FBE0B6"/><path d=" M 44.459 39.967 C 44.459 41.846 43.746 43.698 42.321 45.123 L 42.298 45.146 C 41.3 46.144 40.088 46.8 38.803 47.093 C 38.708 47.116 38.601 47.139 38.483 47.165 C 38.281 47.211 38.079 47.237 37.877 47.26 C 37.866 47.249 37.854 47.26 37.843 47.26 C 36.57 47.557 35.37 48.209 34.383 49.196 L 34.36 49.22 C 33.182 50.398 32.493 51.869 32.291 53.404 L 32.291 53.415 L 32.268 53.415 C 31.994 54.795 31.331 56.113 30.26 57.184 L 30.249 57.195 C 27.398 60.046 22.772 60.046 19.933 57.195 L 19.92 57.195 C 17.081 54.341 17.081 49.729 19.92 46.879 L 19.943 46.856 C 21.014 45.785 22.332 45.122 23.723 44.859 C 25.255 44.668 26.741 43.944 27.919 42.767 L 27.93 42.744 C 28.917 41.757 29.572 40.557 29.866 39.288 L 29.866 39.277 C 29.889 39.052 29.927 38.824 29.973 38.599 C 29.996 38.504 30.007 38.42 30.03 38.328 C 30.327 37.044 30.983 35.82 31.981 34.822 L 31.992 34.811 C 34.843 31.96 39.469 31.96 42.32 34.811 C 43.746 36.236 44.459 38.104 44.459 39.967" fill="#FF9350"/><path d=" M 86.451 60.946 C 86.741 60.778 86.962 60.55 87.126 60.252 C 87.286 59.955 87.37 59.619 87.37 59.246 C 87.37 58.873 87.286 58.537 87.126 58.24 C 86.966 57.943 86.741 57.71 86.451 57.543 C 86.165 57.375 85.841 57.288 85.479 57.288 C 85.109 57.288 84.782 57.372 84.496 57.543 C 84.21 57.711 83.985 57.943 83.821 58.24 C 83.661 58.537 83.577 58.873 83.577 59.246 C 83.577 59.619 83.661 59.959 83.821 60.252 C 83.981 60.549 84.21 60.778 84.496 60.946 C 84.782 61.11 85.11 61.194 85.479 61.194 C 85.841 61.194 86.165 61.11 86.451 60.946 M 86.817 56.968 C 87.21 57.189 87.522 57.498 87.743 57.894 C 87.968 58.29 88.078 58.74 88.078 59.247 L 88.078 61.156 C 88.078 61.655 87.967 62.109 87.746 62.513 C 87.525 62.917 87.216 63.237 86.824 63.473 C 86.431 63.705 85.986 63.824 85.494 63.824 C 85.014 63.824 84.587 63.733 84.214 63.553 C 83.837 63.374 83.524 63.119 83.269 62.795 C 83.216 62.734 83.185 62.662 83.185 62.578 C 83.185 62.483 83.231 62.403 83.315 62.334 C 83.38 62.292 83.445 62.269 83.521 62.269 C 83.578 62.269 83.632 62.284 83.689 62.311 C 83.746 62.338 83.788 62.376 83.819 62.418 C 84.006 62.654 84.242 62.841 84.532 62.971 C 84.822 63.101 85.146 63.169 85.508 63.169 C 85.859 63.169 86.175 63.085 86.457 62.91 C 86.743 62.739 86.964 62.498 87.128 62.19 C 87.292 61.882 87.372 61.527 87.372 61.127 L 87.372 60.708 C 87.185 61.062 86.919 61.344 86.576 61.546 C 86.233 61.752 85.844 61.851 85.406 61.851 C 84.922 61.851 84.484 61.74 84.099 61.519 C 83.714 61.298 83.417 60.989 83.2 60.593 C 82.987 60.197 82.88 59.751 82.88 59.252 C 82.88 58.745 82.994 58.295 83.219 57.899 C 83.444 57.503 83.753 57.194 84.149 56.973 C 84.545 56.752 84.987 56.641 85.483 56.641 C 85.975 56.632 86.424 56.743 86.817 56.968"/><path d=" M 92.827 56.727 C 92.979 56.796 93.056 56.895 93.056 57.017 C 93.056 57.055 93.052 57.082 93.048 57.101 C 93.021 57.189 92.983 57.246 92.93 57.28 C 92.877 57.31 92.804 57.326 92.709 57.326 C 92.652 57.326 92.557 57.318 92.419 57.307 C 92.369 57.303 92.293 57.299 92.194 57.299 C 91.725 57.299 91.344 57.425 91.047 57.672 C 90.75 57.92 90.605 58.244 90.605 58.644 L 90.605 61.445 C 90.605 61.559 90.575 61.643 90.51 61.708 C 90.449 61.769 90.361 61.799 90.247 61.799 C 90.136 61.799 90.049 61.769 89.984 61.708 C 89.923 61.643 89.889 61.559 89.889 61.445 L 89.889 57.036 C 89.889 56.922 89.919 56.838 89.984 56.773 C 90.049 56.712 90.133 56.678 90.247 56.678 C 90.361 56.678 90.449 56.708 90.51 56.773 C 90.575 56.834 90.605 56.922 90.605 57.036 L 90.605 57.448 C 90.784 57.185 91.017 56.983 91.295 56.838 C 91.577 56.693 91.878 56.625 92.202 56.625 C 92.465 56.625 92.67 56.659 92.827 56.727"/><path d=" M 95.601 57.543 C 95.311 57.711 95.083 57.943 94.919 58.24 C 94.751 58.537 94.671 58.873 94.671 59.246 C 94.671 59.616 94.755 59.947 94.919 60.244 C 95.087 60.541 95.312 60.774 95.601 60.941 C 95.891 61.109 96.215 61.193 96.569 61.193 C 96.931 61.193 97.255 61.109 97.541 60.941 C 97.827 60.773 98.052 60.541 98.216 60.244 C 98.38 59.947 98.46 59.615 98.46 59.246 C 98.46 58.873 98.38 58.537 98.216 58.24 C 98.056 57.943 97.831 57.71 97.541 57.543 C 97.251 57.375 96.927 57.288 96.569 57.288 C 96.214 57.288 95.891 57.371 95.601 57.543 M 97.899 56.971 C 98.292 57.196 98.604 57.508 98.833 57.908 C 99.062 58.308 99.172 58.754 99.172 59.246 C 99.172 59.738 99.061 60.183 98.837 60.58 C 98.612 60.976 98.3 61.285 97.903 61.514 C 97.507 61.739 97.065 61.849 96.569 61.849 C 96.074 61.849 95.632 61.735 95.235 61.514 C 94.839 61.289 94.53 60.977 94.305 60.58 C 94.08 60.184 93.966 59.738 93.966 59.246 C 93.966 58.754 94.08 58.309 94.305 57.908 C 94.53 57.508 94.839 57.195 95.235 56.971 C 95.631 56.746 96.077 56.632 96.569 56.632 C 97.064 56.632 97.506 56.746 97.899 56.971"/><path d=" M 105.433 56.781 C 105.502 56.846 105.536 56.933 105.536 57.04 L 105.536 61.442 C 105.536 61.549 105.502 61.636 105.433 61.705 C 105.364 61.774 105.277 61.808 105.17 61.808 C 105.063 61.808 104.976 61.774 104.911 61.705 C 104.846 61.636 104.812 61.549 104.812 61.442 L 104.812 61.122 C 104.606 61.351 104.359 61.534 104.065 61.667 C 103.772 61.797 103.455 61.865 103.108 61.865 C 102.666 61.865 102.27 61.77 101.915 61.583 C 101.56 61.396 101.286 61.122 101.088 60.764 C 100.886 60.406 100.787 59.975 100.787 59.476 L 100.787 57.04 C 100.787 56.941 100.821 56.853 100.89 56.785 C 100.959 56.716 101.042 56.682 101.142 56.682 C 101.249 56.682 101.336 56.716 101.405 56.785 C 101.474 56.854 101.508 56.937 101.508 57.04 L 101.508 59.475 C 101.508 60.031 101.66 60.454 101.969 60.744 C 102.278 61.034 102.682 61.178 103.181 61.178 C 103.486 61.178 103.764 61.121 104.008 60.999 C 104.256 60.881 104.45 60.717 104.591 60.507 C 104.736 60.297 104.808 60.065 104.808 59.81 L 104.808 57.04 C 104.808 56.933 104.842 56.846 104.907 56.781 C 104.972 56.716 105.056 56.682 105.166 56.682 C 105.277 56.682 105.361 56.712 105.433 56.781"/><path d=" M 111.153 56.907 C 111.504 57.094 111.782 57.368 111.98 57.726 C 112.178 58.084 112.281 58.515 112.281 59.014 L 112.281 61.449 C 112.281 61.548 112.247 61.632 112.178 61.701 C 112.109 61.77 112.026 61.804 111.923 61.804 C 111.816 61.804 111.729 61.77 111.66 61.701 C 111.591 61.632 111.557 61.549 111.557 61.449 L 111.557 59.014 C 111.557 58.458 111.401 58.035 111.092 57.745 C 110.783 57.455 110.379 57.311 109.88 57.311 C 109.575 57.311 109.297 57.372 109.053 57.49 C 108.809 57.608 108.611 57.772 108.47 57.982 C 108.325 58.192 108.253 58.424 108.253 58.679 L 108.253 61.45 C 108.253 61.557 108.219 61.641 108.154 61.705 C 108.089 61.77 108.002 61.804 107.895 61.804 C 107.788 61.804 107.701 61.77 107.632 61.705 C 107.563 61.64 107.529 61.553 107.529 61.45 L 107.529 57.048 C 107.529 56.941 107.563 56.854 107.632 56.785 C 107.701 56.716 107.788 56.682 107.895 56.682 C 108.002 56.682 108.086 56.716 108.154 56.785 C 108.219 56.854 108.253 56.941 108.253 57.048 L 108.253 57.368 C 108.459 57.136 108.706 56.956 109 56.827 C 109.293 56.697 109.614 56.629 109.957 56.629 C 110.402 56.625 110.799 56.72 111.153 56.907"/><path d=" M 117.483 60.935 C 117.769 60.764 117.997 60.531 118.161 60.234 C 118.329 59.937 118.409 59.605 118.409 59.236 C 118.409 59.129 118.405 59.053 118.401 59.004 C 118.397 58.993 118.393 58.977 118.393 58.958 C 118.328 58.47 118.126 58.07 117.779 57.758 C 117.432 57.446 117.013 57.289 116.518 57.289 C 116.164 57.289 115.84 57.373 115.55 57.544 C 115.26 57.712 115.032 57.944 114.868 58.241 C 114.7 58.538 114.62 58.87 114.62 59.236 C 114.62 59.606 114.704 59.937 114.868 60.234 C 115.032 60.531 115.261 60.764 115.55 60.935 C 115.84 61.106 116.164 61.194 116.518 61.194 C 116.873 61.194 117.193 61.106 117.483 60.935 M 119.122 57.036 L 119.122 59.235 C 119.122 59.723 119.008 60.165 118.783 60.565 C 118.554 60.965 118.242 61.278 117.846 61.506 C 117.45 61.735 117.008 61.849 116.524 61.849 C 116.036 61.849 115.594 61.735 115.198 61.506 C 114.802 61.277 114.489 60.965 114.261 60.565 C 114.032 60.165 113.918 59.723 113.918 59.235 C 113.918 58.751 114.029 58.309 114.25 57.913 C 114.471 57.517 114.776 57.204 115.157 56.976 C 115.538 56.747 115.969 56.633 116.445 56.633 C 116.853 56.633 117.222 56.717 117.562 56.892 C 117.897 57.063 118.176 57.3 118.397 57.597 L 118.397 54.853 C 118.397 54.746 118.431 54.659 118.5 54.59 C 118.569 54.521 118.656 54.487 118.763 54.487 C 118.87 54.487 118.954 54.521 119.022 54.59 C 119.087 54.659 119.121 54.746 119.121 54.853 L 119.121 56.949 C 119.118 56.971 119.122 56.998 119.122 57.036"/><path d=" M 121.241 56.785 C 121.31 56.716 121.397 56.682 121.504 56.682 C 121.611 56.682 121.698 56.716 121.763 56.785 C 121.828 56.854 121.862 56.941 121.862 57.048 L 121.862 61.438 C 121.862 61.545 121.832 61.632 121.763 61.701 C 121.698 61.77 121.614 61.804 121.504 61.804 C 121.397 61.804 121.31 61.77 121.241 61.701 C 121.172 61.632 121.138 61.545 121.138 61.438 L 121.138 57.048 C 121.138 56.941 121.172 56.853 121.241 56.785 M 121.858 54.826 C 121.957 54.921 122.007 55.043 122.007 55.192 C 122.007 55.337 121.954 55.459 121.858 55.558 C 121.759 55.657 121.637 55.707 121.492 55.707 C 121.347 55.707 121.229 55.657 121.134 55.558 C 121.035 55.459 120.989 55.337 120.989 55.192 C 120.989 55.043 121.039 54.921 121.138 54.826 C 121.237 54.731 121.359 54.685 121.504 54.685 C 121.641 54.689 121.759 54.734 121.858 54.826"/><path d=" M 127.559 56.907 C 127.91 57.094 128.188 57.368 128.386 57.726 C 128.584 58.084 128.687 58.515 128.687 59.014 L 128.687 61.449 C 128.687 61.548 128.653 61.632 128.584 61.701 C 128.515 61.77 128.432 61.804 128.332 61.804 C 128.225 61.804 128.138 61.77 128.069 61.701 C 128 61.632 127.966 61.549 127.966 61.449 L 127.966 59.014 C 127.966 58.458 127.81 58.035 127.501 57.745 C 127.192 57.455 126.788 57.311 126.289 57.311 C 125.984 57.311 125.706 57.372 125.462 57.49 C 125.218 57.608 125.02 57.772 124.879 57.982 C 124.734 58.192 124.662 58.424 124.662 58.679 L 124.662 61.45 C 124.662 61.557 124.628 61.641 124.563 61.705 C 124.498 61.77 124.411 61.804 124.304 61.804 C 124.197 61.804 124.11 61.77 124.041 61.705 C 123.972 61.64 123.938 61.553 123.938 61.45 L 123.938 57.048 C 123.938 56.941 123.972 56.854 124.041 56.785 C 124.11 56.716 124.197 56.682 124.304 56.682 C 124.411 56.682 124.495 56.716 124.563 56.785 C 124.628 56.854 124.662 56.941 124.662 57.048 L 124.662 57.368 C 124.868 57.136 125.115 56.956 125.409 56.827 C 125.702 56.697 126.023 56.629 126.366 56.629 C 126.808 56.625 127.208 56.72 127.559 56.907"/><path d=" M 133.893 60.946 C 134.183 60.778 134.404 60.55 134.568 60.252 C 134.728 59.955 134.812 59.619 134.812 59.246 C 134.812 58.873 134.728 58.537 134.568 58.24 C 134.408 57.943 134.183 57.71 133.893 57.543 C 133.607 57.375 133.283 57.288 132.921 57.288 C 132.551 57.288 132.224 57.372 131.938 57.543 C 131.652 57.711 131.427 57.943 131.263 58.24 C 131.103 58.537 131.019 58.873 131.019 59.246 C 131.019 59.619 131.103 59.959 131.263 60.252 C 131.427 60.549 131.652 60.778 131.938 60.946 C 132.224 61.11 132.552 61.194 132.921 61.194 C 133.283 61.194 133.607 61.11 133.893 60.946 M 134.259 56.968 C 134.652 57.189 134.964 57.498 135.185 57.894 C 135.41 58.29 135.52 58.74 135.52 59.247 L 135.52 61.156 C 135.52 61.655 135.409 62.109 135.188 62.513 C 134.967 62.917 134.658 63.237 134.266 63.473 C 133.873 63.705 133.428 63.824 132.936 63.824 C 132.456 63.824 132.029 63.733 131.656 63.553 C 131.283 63.374 130.966 63.119 130.711 62.795 C 130.654 62.734 130.627 62.662 130.627 62.578 C 130.627 62.483 130.673 62.403 130.757 62.334 C 130.822 62.292 130.887 62.269 130.963 62.269 C 131.02 62.269 131.074 62.284 131.131 62.311 C 131.188 62.338 131.23 62.376 131.261 62.418 C 131.448 62.654 131.684 62.841 131.974 62.971 C 132.264 63.101 132.588 63.169 132.95 63.169 C 133.301 63.169 133.617 63.085 133.899 62.91 C 134.185 62.739 134.406 62.498 134.57 62.19 C 134.734 61.881 134.814 61.527 134.814 61.127 L 134.814 60.708 C 134.627 61.062 134.361 61.344 134.018 61.546 C 133.675 61.752 133.286 61.851 132.848 61.851 C 132.364 61.851 131.926 61.74 131.541 61.519 C 131.156 61.298 130.859 60.989 130.642 60.593 C 130.429 60.197 130.322 59.751 130.322 59.252 C 130.322 58.745 130.436 58.295 130.661 57.899 C 130.886 57.503 131.195 57.194 131.591 56.973 C 131.987 56.752 132.429 56.641 132.925 56.641 C 133.42 56.632 133.866 56.743 134.259 56.968"/><path d=" M 142.273 61.194 C 142.627 61.194 142.951 61.11 143.241 60.939 C 143.531 60.768 143.759 60.531 143.927 60.238 C 144.091 59.941 144.175 59.609 144.175 59.24 C 144.175 58.87 144.091 58.539 143.927 58.242 C 143.759 57.945 143.534 57.712 143.241 57.545 C 142.951 57.377 142.627 57.29 142.273 57.29 C 141.781 57.29 141.358 57.446 141.015 57.759 C 140.668 58.071 140.462 58.472 140.401 58.956 C 140.401 58.975 140.397 58.99 140.393 59.002 C 140.385 59.052 140.385 59.128 140.385 59.234 C 140.385 59.604 140.465 59.935 140.633 60.232 C 140.801 60.529 141.026 60.762 141.315 60.933 C 141.595 61.106 141.918 61.194 142.273 61.194 M 139.681 56.952 L 139.681 54.856 C 139.681 54.749 139.711 54.662 139.78 54.593 C 139.845 54.524 139.929 54.49 140.039 54.49 C 140.146 54.49 140.233 54.524 140.302 54.593 C 140.371 54.662 140.405 54.749 140.405 54.856 L 140.405 57.6 C 140.622 57.299 140.9 57.066 141.24 56.895 C 141.58 56.724 141.949 56.636 142.357 56.636 C 142.83 56.636 143.26 56.75 143.645 56.979 C 144.03 57.208 144.331 57.52 144.552 57.916 C 144.773 58.312 144.884 58.754 144.884 59.238 C 144.884 59.722 144.77 60.168 144.541 60.568 C 144.312 60.968 144 61.281 143.604 61.509 C 143.208 61.738 142.766 61.852 142.278 61.852 C 141.794 61.852 141.352 61.738 140.956 61.509 C 140.56 61.28 140.247 60.968 140.019 60.568 C 139.79 60.168 139.676 59.726 139.676 59.238 L 139.676 57.04 C 139.67 56.998 139.674 56.971 139.681 56.952"/><path d=" M 146.575 54.59 C 146.644 54.525 146.727 54.491 146.83 54.491 C 146.937 54.491 147.024 54.525 147.089 54.59 C 147.154 54.655 147.188 54.742 147.188 54.849 L 147.188 60.188 C 147.188 60.455 147.245 60.672 147.352 60.843 C 147.463 61.011 147.6 61.095 147.771 61.095 L 148.003 61.095 C 148.098 61.095 148.171 61.129 148.228 61.194 C 148.285 61.259 148.312 61.346 148.312 61.453 C 148.312 61.56 148.274 61.644 148.194 61.712 C 148.118 61.777 148.015 61.811 147.889 61.811 L 147.771 61.811 C 147.39 61.811 147.077 61.659 146.837 61.358 C 146.597 61.057 146.479 60.668 146.479 60.192 L 146.479 54.853 C 146.472 54.738 146.507 54.654 146.575 54.59"/><path d=" M 150.832 57.543 C 150.542 57.711 150.314 57.943 150.146 58.24 C 149.982 58.537 149.898 58.873 149.898 59.246 C 149.898 59.616 149.982 59.947 150.146 60.244 C 150.314 60.541 150.539 60.774 150.832 60.941 C 151.122 61.109 151.446 61.193 151.8 61.193 C 152.162 61.193 152.486 61.109 152.772 60.941 C 153.062 60.773 153.283 60.541 153.447 60.244 C 153.611 59.947 153.691 59.615 153.691 59.246 C 153.691 58.873 153.611 58.537 153.447 58.24 C 153.287 57.943 153.062 57.71 152.772 57.543 C 152.482 57.375 152.158 57.288 151.8 57.288 C 151.446 57.288 151.122 57.371 150.832 57.543 M 153.13 56.971 C 153.523 57.196 153.835 57.508 154.064 57.908 C 154.293 58.308 154.403 58.754 154.403 59.246 C 154.403 59.738 154.292 60.183 154.068 60.58 C 153.844 60.977 153.531 61.285 153.134 61.514 C 152.738 61.739 152.292 61.849 151.8 61.849 C 151.305 61.849 150.863 61.735 150.466 61.514 C 150.07 61.289 149.761 60.977 149.536 60.58 C 149.311 60.184 149.197 59.738 149.197 59.246 C 149.197 58.754 149.311 58.309 149.536 57.908 C 149.761 57.508 150.07 57.195 150.466 56.971 C 150.862 56.746 151.308 56.632 151.8 56.632 C 152.296 56.632 152.738 56.746 153.13 56.971"/><path d=" M 160.207 57.532 C 160.257 57.589 160.283 57.654 160.283 57.73 C 160.283 57.829 160.23 57.917 160.123 57.993 C 160.066 58.031 160.005 58.05 159.944 58.05 C 159.849 58.05 159.761 58.004 159.673 57.909 C 159.486 57.703 159.28 57.551 159.056 57.444 C 158.831 57.341 158.58 57.292 158.309 57.292 C 157.966 57.292 157.657 57.376 157.391 57.54 C 157.124 57.704 156.918 57.936 156.77 58.237 C 156.625 58.538 156.549 58.873 156.549 59.247 C 156.549 59.617 156.625 59.948 156.785 60.245 C 156.941 60.542 157.158 60.775 157.44 60.942 C 157.718 61.11 158.042 61.194 158.404 61.194 C 158.903 61.194 159.307 61.061 159.612 60.79 C 159.692 60.721 159.776 60.687 159.867 60.687 C 159.943 60.687 160.012 60.714 160.073 60.763 C 160.161 60.839 160.203 60.923 160.203 61.018 C 160.203 61.098 160.173 61.167 160.112 61.224 C 159.662 61.643 159.094 61.853 158.409 61.853 C 157.925 61.853 157.483 61.739 157.098 61.51 C 156.709 61.281 156.408 60.969 156.183 60.573 C 155.962 60.177 155.851 59.735 155.851 59.251 C 155.851 58.752 155.958 58.302 156.167 57.906 C 156.38 57.51 156.674 57.201 157.047 56.972 C 157.42 56.747 157.843 56.637 158.312 56.637 C 159.083 56.636 159.719 56.933 160.207 57.532"/><path d=" M 165.897 61.502 C 165.897 61.597 165.851 61.681 165.767 61.757 C 165.691 61.814 165.618 61.841 165.542 61.841 C 165.443 61.841 165.355 61.795 165.287 61.711 L 163.359 59.344 L 162.658 59.98 L 162.658 61.451 C 162.658 61.558 162.624 61.642 162.559 61.706 C 162.494 61.771 162.407 61.805 162.3 61.805 C 162.193 61.805 162.109 61.771 162.045 61.706 C 161.98 61.641 161.946 61.557 161.946 61.451 L 161.946 54.851 C 161.946 54.744 161.98 54.657 162.045 54.592 C 162.11 54.527 162.194 54.493 162.3 54.493 C 162.407 54.493 162.494 54.527 162.559 54.592 C 162.624 54.657 162.658 54.744 162.658 54.851 L 162.658 59.112 L 165.299 56.726 C 165.368 56.665 165.444 56.631 165.524 56.631 C 165.619 56.631 165.695 56.669 165.76 56.745 C 165.829 56.825 165.863 56.901 165.863 56.97 C 165.863 57.058 165.825 57.138 165.741 57.206 L 163.87 58.902 L 165.817 61.299 C 165.87 61.35 165.897 61.422 165.897 61.502"/><path d=" M 171.438 57.532 C 171.488 57.589 171.514 57.654 171.514 57.73 C 171.514 57.829 171.461 57.917 171.354 57.993 C 171.297 58.031 171.236 58.05 171.175 58.05 C 171.08 58.05 170.992 58.004 170.904 57.909 C 170.717 57.703 170.511 57.551 170.287 57.444 C 170.062 57.341 169.811 57.292 169.54 57.292 C 169.197 57.292 168.888 57.376 168.622 57.54 C 168.355 57.704 168.149 57.936 168.001 58.237 C 167.856 58.538 167.78 58.873 167.78 59.247 C 167.78 59.617 167.86 59.948 168.016 60.245 C 168.172 60.542 168.389 60.775 168.671 60.942 C 168.949 61.11 169.273 61.194 169.635 61.194 C 170.134 61.194 170.534 61.061 170.843 60.79 C 170.923 60.721 171.007 60.687 171.098 60.687 C 171.174 60.687 171.243 60.714 171.304 60.763 C 171.392 60.839 171.434 60.923 171.434 61.018 C 171.434 61.098 171.404 61.167 171.343 61.224 C 170.893 61.643 170.325 61.853 169.64 61.853 C 169.156 61.853 168.714 61.739 168.329 61.51 C 167.94 61.281 167.639 60.969 167.414 60.573 C 167.193 60.177 167.082 59.735 167.082 59.251 C 167.082 58.752 167.189 58.302 167.398 57.906 C 167.611 57.51 167.905 57.201 168.278 56.972 C 168.651 56.747 169.074 56.637 169.543 56.637 C 170.317 56.636 170.95 56.933 171.438 57.532"/><path d=" M 176.796 56.907 C 177.147 57.094 177.425 57.368 177.623 57.726 C 177.821 58.084 177.924 58.515 177.924 59.014 L 177.924 61.449 C 177.924 61.548 177.89 61.632 177.821 61.701 C 177.752 61.77 177.669 61.804 177.57 61.804 C 177.463 61.804 177.376 61.77 177.307 61.701 C 177.238 61.632 177.204 61.549 177.204 61.449 L 177.204 59.014 C 177.204 58.458 177.048 58.035 176.739 57.745 C 176.43 57.455 176.026 57.311 175.527 57.311 C 175.222 57.311 174.944 57.372 174.7 57.49 C 174.456 57.608 174.258 57.772 174.117 57.982 C 173.972 58.192 173.9 58.424 173.9 58.679 L 173.9 61.45 C 173.9 61.557 173.866 61.641 173.801 61.705 C 173.736 61.77 173.649 61.804 173.542 61.804 C 173.435 61.804 173.348 61.77 173.279 61.705 C 173.21 61.64 173.176 61.553 173.176 61.45 L 173.176 54.857 C 173.176 54.75 173.21 54.663 173.279 54.594 C 173.348 54.525 173.435 54.491 173.542 54.491 C 173.649 54.491 173.733 54.525 173.801 54.594 C 173.866 54.663 173.9 54.75 173.9 54.857 L 173.9 57.365 C 174.106 57.133 174.353 56.953 174.647 56.824 C 174.94 56.694 175.261 56.626 175.604 56.626 C 176.045 56.625 176.445 56.72 176.796 56.907"/><path d=" M 183.126 60.942 C 183.412 60.774 183.64 60.542 183.804 60.245 C 183.972 59.948 184.052 59.616 184.052 59.247 C 184.052 58.877 183.968 58.546 183.804 58.249 C 183.64 57.952 183.411 57.719 183.126 57.548 C 182.836 57.377 182.516 57.289 182.162 57.289 C 181.808 57.289 181.484 57.377 181.194 57.548 C 180.904 57.719 180.676 57.956 180.508 58.249 C 180.344 58.546 180.26 58.878 180.26 59.247 C 180.26 59.617 180.344 59.948 180.508 60.245 C 180.676 60.542 180.901 60.775 181.194 60.942 C 181.484 61.11 181.808 61.194 182.162 61.194 C 182.516 61.194 182.836 61.11 183.126 60.942 M 183.484 56.975 C 183.88 57.204 184.193 57.516 184.421 57.916 C 184.65 58.316 184.76 58.758 184.76 59.246 L 184.76 61.445 C 184.76 61.544 184.726 61.628 184.657 61.697 C 184.588 61.766 184.501 61.8 184.394 61.8 C 184.287 61.8 184.2 61.766 184.131 61.701 C 184.062 61.636 184.028 61.552 184.028 61.446 L 184.028 60.886 C 183.811 61.187 183.533 61.42 183.193 61.591 C 182.854 61.762 182.484 61.85 182.076 61.85 C 181.603 61.85 181.173 61.736 180.788 61.507 C 180.403 61.278 180.102 60.966 179.881 60.573 C 179.66 60.177 179.549 59.735 179.549 59.247 C 179.549 58.759 179.663 58.317 179.892 57.917 C 180.121 57.517 180.433 57.204 180.826 56.976 C 181.222 56.747 181.664 56.633 182.152 56.633 C 182.64 56.633 183.087 56.746 183.484 56.975"/><path d=" M 186.731 56.785 C 186.8 56.716 186.887 56.682 186.994 56.682 C 187.101 56.682 187.188 56.716 187.253 56.785 C 187.318 56.854 187.352 56.941 187.352 57.048 L 187.352 61.438 C 187.352 61.545 187.322 61.632 187.253 61.701 C 187.188 61.77 187.104 61.804 186.994 61.804 C 186.887 61.804 186.8 61.77 186.731 61.701 C 186.662 61.632 186.628 61.545 186.628 61.438 L 186.628 57.048 C 186.628 56.941 186.658 56.853 186.731 56.785 M 187.348 54.826 C 187.447 54.921 187.497 55.043 187.497 55.192 C 187.497 55.337 187.447 55.459 187.348 55.558 C 187.249 55.657 187.127 55.707 186.982 55.707 C 186.837 55.707 186.719 55.657 186.624 55.558 C 186.525 55.459 186.479 55.337 186.479 55.192 C 186.479 55.043 186.529 54.921 186.628 54.826 C 186.727 54.731 186.849 54.685 186.994 54.685 C 187.127 54.689 187.249 54.734 187.348 54.826"/><path d=" M 193.045 56.907 C 193.396 57.094 193.674 57.368 193.872 57.726 C 194.07 58.084 194.173 58.515 194.173 59.014 L 194.173 61.449 C 194.173 61.548 194.139 61.632 194.07 61.701 C 194.001 61.77 193.914 61.804 193.815 61.804 C 193.708 61.804 193.621 61.77 193.552 61.701 C 193.483 61.632 193.449 61.549 193.449 61.449 L 193.449 59.014 C 193.449 58.458 193.293 58.035 192.984 57.745 C 192.675 57.455 192.271 57.311 191.772 57.311 C 191.467 57.311 191.189 57.372 190.945 57.49 C 190.701 57.608 190.503 57.772 190.362 57.982 C 190.217 58.192 190.145 58.424 190.145 58.679 L 190.145 61.45 C 190.145 61.557 190.111 61.641 190.046 61.705 C 189.981 61.77 189.894 61.804 189.787 61.804 C 189.68 61.804 189.593 61.77 189.524 61.705 C 189.455 61.64 189.421 61.553 189.421 61.45 L 189.421 57.048 C 189.421 56.941 189.455 56.854 189.524 56.785 C 189.593 56.716 189.68 56.682 189.787 56.682 C 189.894 56.682 189.978 56.716 190.046 56.785 C 190.111 56.854 190.145 56.941 190.145 57.048 L 190.145 57.368 C 190.351 57.136 190.598 56.956 190.892 56.827 C 191.185 56.697 191.506 56.629 191.849 56.629 C 192.298 56.625 192.695 56.72 193.045 56.907"/><path d=" M 201.357 56.846 C 201.662 56.987 201.91 57.181 202.096 57.433 C 202.149 57.513 202.172 57.585 202.172 57.646 C 202.172 57.753 202.122 57.837 202.023 57.898 C 201.977 57.928 201.92 57.944 201.844 57.944 C 201.714 57.944 201.604 57.898 201.516 57.803 C 201.211 57.452 200.792 57.281 200.262 57.281 C 199.919 57.281 199.645 57.35 199.439 57.491 C 199.233 57.632 199.13 57.807 199.13 58.021 C 199.13 58.246 199.229 58.425 199.42 58.558 C 199.614 58.691 199.957 58.798 200.449 58.882 C 201.116 58.996 201.596 59.179 201.882 59.431 C 202.168 59.683 202.313 59.995 202.313 60.372 C 202.313 60.662 202.225 60.917 202.058 61.142 C 201.886 61.367 201.646 61.542 201.342 61.664 C 201.037 61.79 200.69 61.851 200.302 61.851 C 199.913 61.851 199.544 61.786 199.189 61.653 C 198.835 61.52 198.545 61.337 198.328 61.1 C 198.267 61.024 198.233 60.951 198.233 60.883 C 198.233 60.776 198.283 60.685 198.382 60.601 C 198.458 60.544 198.534 60.517 198.618 60.517 C 198.725 60.517 198.816 60.559 198.889 60.647 C 199.038 60.822 199.236 60.956 199.483 61.051 C 199.731 61.142 200.001 61.192 200.302 61.192 C 200.74 61.192 201.068 61.116 201.285 60.967 C 201.502 60.818 201.617 60.62 201.624 60.376 C 201.624 60.151 201.513 59.964 201.296 59.812 C 201.079 59.663 200.732 59.549 200.256 59.477 C 199.642 59.378 199.189 59.203 198.884 58.959 C 198.583 58.711 198.43 58.414 198.43 58.063 C 198.43 57.606 198.605 57.255 198.96 57.004 C 199.311 56.756 199.753 56.631 200.282 56.631 C 200.69 56.632 201.048 56.705 201.357 56.846"/><path d=" M 205.229 57.543 C 204.939 57.711 204.711 57.943 204.547 58.24 C 204.379 58.537 204.299 58.873 204.299 59.246 C 204.299 59.616 204.383 59.947 204.547 60.244 C 204.715 60.541 204.94 60.774 205.229 60.941 C 205.519 61.109 205.843 61.193 206.197 61.193 C 206.559 61.193 206.883 61.109 207.169 60.941 C 207.455 60.773 207.68 60.541 207.844 60.244 C 208.008 59.947 208.088 59.615 208.088 59.246 C 208.088 58.873 208.008 58.537 207.844 58.24 C 207.684 57.943 207.459 57.71 207.169 57.543 C 206.879 57.375 206.555 57.288 206.197 57.288 C 205.842 57.288 205.518 57.371 205.229 57.543 M 207.527 56.971 C 207.92 57.196 208.232 57.508 208.461 57.908 C 208.69 58.308 208.8 58.754 208.8 59.246 C 208.8 59.738 208.689 60.183 208.465 60.58 C 208.241 60.977 207.928 61.285 207.531 61.514 C 207.135 61.739 206.693 61.849 206.197 61.849 C 205.701 61.849 205.26 61.735 204.863 61.514 C 204.467 61.289 204.158 60.977 203.933 60.58 C 203.708 60.184 203.594 59.738 203.594 59.246 C 203.594 58.754 203.708 58.309 203.933 57.908 C 204.158 57.507 204.467 57.195 204.863 56.971 C 205.259 56.746 205.705 56.632 206.197 56.632 C 206.688 56.632 207.134 56.746 207.527 56.971"/><path d=" M 210.495 54.59 C 210.564 54.525 210.647 54.491 210.75 54.491 C 210.857 54.491 210.944 54.525 211.009 54.59 C 211.074 54.655 211.108 54.742 211.108 54.849 L 211.108 60.188 C 211.108 60.455 211.165 60.672 211.272 60.843 C 211.383 61.011 211.52 61.095 211.691 61.095 L 211.923 61.095 C 212.018 61.095 212.091 61.129 212.148 61.194 C 212.205 61.259 212.232 61.346 212.232 61.453 C 212.232 61.56 212.194 61.644 212.114 61.712 C 212.038 61.777 211.935 61.811 211.809 61.811 L 211.691 61.811 C 211.31 61.811 210.997 61.659 210.757 61.358 C 210.517 61.057 210.399 60.668 210.399 60.192 L 210.399 54.853 C 210.396 54.738 210.431 54.654 210.495 54.59"/><path d=" M 217.953 56.781 C 218.022 56.846 218.056 56.933 218.056 57.04 L 218.056 61.442 C 218.056 61.549 218.022 61.636 217.953 61.705 C 217.884 61.774 217.797 61.808 217.69 61.808 C 217.583 61.808 217.496 61.774 217.431 61.705 C 217.366 61.636 217.332 61.549 217.332 61.442 L 217.332 61.122 C 217.126 61.351 216.879 61.534 216.585 61.667 C 216.292 61.797 215.975 61.865 215.628 61.865 C 215.186 61.865 214.79 61.77 214.435 61.583 C 214.081 61.396 213.806 61.122 213.608 60.764 C 213.406 60.406 213.307 59.975 213.307 59.476 L 213.307 57.04 C 213.307 56.941 213.341 56.853 213.41 56.785 C 213.479 56.716 213.562 56.682 213.662 56.682 C 213.769 56.682 213.856 56.716 213.925 56.785 C 213.994 56.854 214.028 56.937 214.028 57.04 L 214.028 59.475 C 214.028 60.031 214.18 60.454 214.489 60.744 C 214.798 61.034 215.202 61.178 215.701 61.178 C 216.006 61.178 216.284 61.121 216.528 60.999 C 216.776 60.881 216.97 60.717 217.111 60.507 C 217.256 60.297 217.328 60.065 217.328 59.81 L 217.328 57.04 C 217.328 56.933 217.362 56.846 217.427 56.781 C 217.492 56.716 217.576 56.682 217.686 56.682 C 217.797 56.682 217.885 56.712 217.953 56.781"/><path d=" M 222.564 61.182 C 222.625 61.251 222.659 61.338 222.659 61.445 C 222.659 61.544 222.621 61.628 222.545 61.697 C 222.469 61.766 222.377 61.8 222.267 61.8 L 222.069 61.8 C 221.741 61.8 221.444 61.72 221.181 61.56 C 220.918 61.4 220.712 61.187 220.567 60.916 C 220.418 60.645 220.346 60.337 220.346 59.994 L 220.346 57.494 L 219.736 57.494 C 219.637 57.494 219.557 57.464 219.496 57.406 C 219.439 57.345 219.408 57.273 219.408 57.185 C 219.408 57.09 219.439 57.017 219.496 56.956 C 219.557 56.899 219.633 56.868 219.736 56.868 L 220.346 56.868 L 220.346 55.416 C 220.346 55.309 220.376 55.222 220.445 55.153 C 220.51 55.084 220.594 55.05 220.704 55.05 C 220.811 55.05 220.898 55.084 220.967 55.153 C 221.036 55.222 221.07 55.309 221.07 55.416 L 221.07 56.868 L 222.129 56.868 C 222.228 56.868 222.308 56.898 222.365 56.956 C 222.422 57.017 222.453 57.093 222.453 57.185 C 222.453 57.273 222.422 57.345 222.365 57.406 C 222.308 57.463 222.228 57.494 222.129 57.494 L 221.07 57.494 L 221.07 59.994 C 221.07 60.314 221.165 60.573 221.352 60.775 C 221.539 60.977 221.779 61.08 222.072 61.08 L 222.327 61.08 C 222.423 61.079 222.504 61.118 222.564 61.182"/><path d=" M 224.276 56.785 C 224.345 56.716 224.432 56.682 224.539 56.682 C 224.646 56.682 224.733 56.716 224.798 56.785 C 224.863 56.854 224.897 56.941 224.897 57.048 L 224.897 61.438 C 224.897 61.545 224.867 61.632 224.798 61.701 C 224.733 61.77 224.649 61.804 224.539 61.804 C 224.432 61.804 224.345 61.77 224.276 61.701 C 224.207 61.632 224.173 61.545 224.173 61.438 L 224.173 57.048 C 224.173 56.941 224.207 56.853 224.276 56.785 M 224.893 54.826 C 224.992 54.921 225.042 55.043 225.042 55.192 C 225.042 55.337 224.989 55.459 224.893 55.558 C 224.794 55.657 224.672 55.707 224.527 55.707 C 224.382 55.707 224.264 55.657 224.169 55.558 C 224.07 55.459 224.024 55.337 224.024 55.192 C 224.024 55.043 224.074 54.921 224.173 54.826 C 224.272 54.731 224.394 54.685 224.539 54.685 C 224.676 54.689 224.794 54.734 224.893 54.826"/><path d=" M 228.311 57.543 C 228.021 57.711 227.793 57.943 227.629 58.24 C 227.465 58.537 227.381 58.873 227.381 59.246 C 227.381 59.616 227.465 59.947 227.629 60.244 C 227.797 60.541 228.022 60.774 228.311 60.941 C 228.601 61.109 228.925 61.193 229.279 61.193 C 229.641 61.193 229.965 61.109 230.251 60.941 C 230.541 60.773 230.762 60.541 230.926 60.244 C 231.09 59.947 231.17 59.615 231.17 59.246 C 231.17 58.873 231.09 58.537 230.926 58.24 C 230.766 57.943 230.541 57.71 230.251 57.543 C 229.961 57.375 229.637 57.288 229.279 57.288 C 228.921 57.288 228.597 57.371 228.311 57.543 M 230.609 56.971 C 231.002 57.196 231.314 57.508 231.543 57.908 C 231.772 58.308 231.882 58.754 231.882 59.246 C 231.882 59.738 231.771 60.183 231.547 60.58 C 231.323 60.977 231.01 61.285 230.613 61.514 C 230.217 61.739 229.771 61.849 229.279 61.849 C 228.784 61.849 228.342 61.735 227.945 61.514 C 227.549 61.289 227.24 60.977 227.015 60.58 C 226.79 60.184 226.676 59.738 226.676 59.246 C 226.676 58.754 226.79 58.309 227.015 57.908 C 227.24 57.507 227.549 57.195 227.945 56.971 C 228.341 56.746 228.787 56.632 229.279 56.632 C 229.771 56.632 230.213 56.746 230.609 56.971"/><path d=" M 237.214 56.907 C 237.565 57.094 237.843 57.368 238.041 57.726 C 238.239 58.084 238.342 58.515 238.342 59.014 L 238.342 61.449 C 238.342 61.548 238.308 61.632 238.239 61.701 C 238.17 61.77 238.087 61.804 237.984 61.804 C 237.877 61.804 237.79 61.77 237.721 61.701 C 237.652 61.632 237.618 61.549 237.618 61.449 L 237.618 59.014 C 237.618 58.458 237.462 58.035 237.153 57.745 C 236.844 57.455 236.44 57.311 235.941 57.311 C 235.636 57.311 235.358 57.372 235.114 57.49 C 234.87 57.608 234.672 57.772 234.531 57.982 C 234.386 58.192 234.314 58.424 234.314 58.679 L 234.314 61.45 C 234.314 61.557 234.28 61.641 234.215 61.705 C 234.15 61.77 234.063 61.804 233.956 61.804 C 233.849 61.804 233.762 61.77 233.693 61.705 C 233.624 61.64 233.59 61.553 233.59 61.45 L 233.59 57.048 C 233.59 56.941 233.624 56.854 233.693 56.785 C 233.762 56.716 233.849 56.682 233.956 56.682 C 234.063 56.682 234.147 56.716 234.215 56.785 C 234.28 56.854 234.314 56.941 234.314 57.048 L 234.314 57.368 C 234.52 57.136 234.768 56.956 235.061 56.827 C 235.354 56.697 235.675 56.629 236.018 56.629 C 236.463 56.625 236.859 56.72 237.214 56.907"/><path d=" M 243.04 56.846 C 243.345 56.987 243.593 57.181 243.779 57.433 C 243.832 57.513 243.855 57.585 243.855 57.646 C 243.855 57.753 243.805 57.837 243.706 57.898 C 243.66 57.928 243.603 57.944 243.527 57.944 C 243.397 57.944 243.287 57.898 243.199 57.803 C 242.894 57.452 242.475 57.281 241.945 57.281 C 241.602 57.281 241.328 57.35 241.122 57.491 C 240.916 57.632 240.813 57.807 240.813 58.021 C 240.813 58.246 240.912 58.425 241.103 58.558 C 241.297 58.691 241.64 58.798 242.132 58.882 C 242.799 58.996 243.279 59.179 243.565 59.431 C 243.851 59.683 243.996 59.995 243.996 60.372 C 243.996 60.662 243.908 60.917 243.741 61.142 C 243.57 61.367 243.329 61.542 243.025 61.664 C 242.72 61.79 242.373 61.851 241.985 61.851 C 241.596 61.851 241.227 61.786 240.872 61.653 C 240.518 61.52 240.228 61.337 240.011 61.1 C 239.95 61.024 239.916 60.951 239.916 60.883 C 239.916 60.776 239.966 60.685 240.065 60.601 C 240.141 60.544 240.217 60.517 240.301 60.517 C 240.408 60.517 240.499 60.559 240.572 60.647 C 240.721 60.822 240.919 60.956 241.166 61.051 C 241.414 61.142 241.684 61.192 241.985 61.192 C 242.423 61.192 242.751 61.116 242.968 60.967 C 243.185 60.818 243.3 60.62 243.307 60.376 C 243.307 60.151 243.196 59.964 242.979 59.812 C 242.762 59.663 242.415 59.549 241.939 59.477 C 241.325 59.378 240.872 59.203 240.567 58.959 C 240.262 58.715 240.113 58.414 240.113 58.063 C 240.113 57.606 240.288 57.255 240.643 57.004 C 240.994 56.756 241.436 56.631 241.965 56.631 C 242.374 56.632 242.732 56.705 243.04 56.846"/></g></svg>