<?xml version="1.0" encoding="utf-8"?>
<!-- Generator: Adobe Illustrator 24.2.0, SVG Export Plug-In . SVG Version: 6.00 Build 0)  -->
<svg version="1.1" id="Livello_1" xmlns="http://www.w3.org/2000/svg" xmlns:xlink="http://www.w3.org/1999/xlink" x="0px" y="0px"
	 viewBox="0 0 269.09 123.11" style="enable-background:new 0 0 269.09 123.11;" xml:space="preserve">
<style type="text/css">
	.st0{fill:#FFFFFF;}
	.st1{fill:#FEC900;}
	.st2{fill:#FEE5B8;}
</style>
<rect width="269.09" height="123.11"/>
<g>
	<path class="st0" d="M16.44,12.01h23.4c3.44,0,7.45,0.1,10.41,0.48c15.76,2.2,27.7,12.9,27.7,32.96c0,22.54-12.8,33.43-27.03,36.3
		c-3.53,0.67-8.31,0.96-12.42,0.96H16.44V12.01z M41.75,72.09c13.47,0,21.87-9.26,21.87-25.98c0-15-6.88-23.5-22.26-23.5H30.2v49.48
		H41.75z"/>
	<path class="st0" d="M129.63,46.31h13.75v32.67c-7.83,3.44-14.61,5.06-24.36,5.06c-19.68,0-34-11.75-34-35.63
		c0-25.79,16.91-37.73,37.06-37.73c9.17,0,15.95,1.34,21.68,4.39l-2.58,9.84c-5.06-2.29-10.6-3.34-18.53-3.34
		c-14.52,0-23.31,9.55-23.31,25.88c0,17.29,8.69,25.6,21.2,25.6c3.44,0,6.02-0.29,9.07-1.34V46.31z"/>
	<path class="st0" d="M155.99,12.01h13.75V82.7h-13.75V12.01z"/>
	<polygon class="st1" points="225.01,12.01 225.01,33.54 203.49,33.54 203.49,33.54 203.49,55.06 181.96,55.06 181.96,82.7 
		188.08,82.7 188.08,61.18 209.6,61.18 209.6,61.18 209.6,39.65 231.13,39.65 231.13,18.13 252.65,18.13 252.65,12.01 	"/>
	<rect x="188.08" y="61.18" class="st2" width="21.52" height="21.52"/>
	<rect x="209.6" y="39.65" class="st2" width="21.52" height="21.52"/>
	<rect x="231.13" y="18.13" class="st2" width="21.52" height="21.52"/>
	<g>
		<path class="st0" d="M16.44,101.16h4.38c1.49,0,2.64,0.53,3.46,1.6c0.73,0.97,1.1,2.2,1.1,3.71c0,1.16-0.22,2.22-0.65,3.15
			c-0.76,1.66-2.07,2.49-3.92,2.49h-4.37V101.16z M20.53,110.85c0.49,0,0.89-0.05,1.21-0.16c0.56-0.19,1.03-0.57,1.38-1.12
			c0.29-0.44,0.49-1.01,0.62-1.7c0.07-0.41,0.11-0.8,0.11-1.15c0-1.36-0.26-2.41-0.79-3.16c-0.53-0.75-1.38-1.13-2.55-1.13h-2.57
			v8.41H20.53z"/>
		<path class="st0" d="M30.04,101.16h1.5v10.96h-1.5V101.16z"/>
		<path class="st0" d="M43.53,101.47c1.07,0.57,1.73,1.57,1.97,3.01h-1.47c-0.18-0.8-0.54-1.38-1.09-1.75
			c-0.55-0.37-1.24-0.55-2.08-0.55c-0.99,0-1.83,0.38-2.51,1.14c-0.68,0.76-1.02,1.89-1.02,3.4c0,1.3,0.28,2.36,0.84,3.18
			s1.47,1.23,2.74,1.23c0.97,0,1.77-0.29,2.41-0.86c0.64-0.57,0.96-1.5,0.98-2.79h-3.43v-1.23h4.81v5.86h-0.95l-0.36-1.41
			c-0.49,0.55-0.93,0.93-1.31,1.15c-0.64,0.37-1.46,0.55-2.44,0.55c-1.28,0-2.37-0.42-3.29-1.26c-1-1.05-1.51-2.5-1.51-4.34
			c0-1.84,0.49-3.29,1.47-4.38c0.93-1.03,2.14-1.55,3.62-1.55C41.91,100.87,42.79,101.07,43.53,101.47z"/>
		<path class="st0" d="M50.75,101.16h1.5v10.96h-1.5V101.16z"/>
		<path class="st0" d="M64.91,101.16v1.31h-3.69v9.65h-1.5v-9.65h-3.69v-1.31H64.91z"/>
		<path class="st0" d="M71.77,101.16h1.68l3.98,10.96h-1.63l-1.14-3.28h-4.3l-1.19,3.28h-1.52L71.77,101.16z M74.23,107.62
			l-1.69-4.84l-1.75,4.84H74.23z"/>
		<path class="st0" d="M81.05,101.16h1.48v9.65h5.5v1.31h-6.98V101.16z"/>
		<path class="st0" d="M105.67,101.47c1.07,0.57,1.73,1.57,1.97,3.01h-1.47c-0.17-0.8-0.54-1.38-1.09-1.75
			c-0.55-0.37-1.24-0.55-2.08-0.55c-0.99,0-1.83,0.38-2.51,1.14c-0.68,0.76-1.02,1.89-1.02,3.4c0,1.3,0.28,2.36,0.84,3.18
			s1.47,1.23,2.74,1.23c0.97,0,1.77-0.29,2.41-0.86c0.64-0.57,0.96-1.5,0.98-2.79h-3.43v-1.23h4.81v5.86h-0.95l-0.36-1.41
			c-0.49,0.55-0.93,0.93-1.31,1.15c-0.64,0.37-1.46,0.55-2.44,0.55c-1.28,0-2.37-0.42-3.29-1.26c-1-1.05-1.5-2.5-1.5-4.34
			c0-1.84,0.49-3.29,1.47-4.38c0.93-1.03,2.14-1.55,3.62-1.55C104.05,100.87,104.93,101.07,105.67,101.47z"/>
		<path class="st0" d="M121.57,102.72c0.73,0.97,1.09,2.21,1.09,3.72c0,1.64-0.42,3-1.25,4.08c-0.98,1.27-2.36,1.91-4.17,1.91
			c-1.69,0-3.01-0.56-3.98-1.67c-0.86-1.07-1.29-2.43-1.29-4.07c0-1.48,0.37-2.75,1.1-3.8c0.94-1.35,2.34-2.03,4.19-2.03
			C119.21,100.86,120.64,101.48,121.57,102.72z M120.26,109.71c0.58-0.94,0.88-2.02,0.88-3.24c0-1.29-0.34-2.33-1.01-3.11
			c-0.67-0.79-1.6-1.18-2.76-1.18c-1.13,0-2.06,0.39-2.77,1.17c-0.72,0.78-1.07,1.93-1.07,3.45c0,1.21,0.31,2.24,0.92,3.07
			c0.61,0.83,1.61,1.25,2.99,1.25C118.73,111.11,119.68,110.65,120.26,109.71z"/>
		<path class="st0" d="M126.72,101.16h1.49v9.65h5.5v1.31h-6.98V101.16z"/>
		<path class="st0" d="M137.58,101.16h4.38c1.49,0,2.64,0.53,3.46,1.6c0.73,0.97,1.1,2.2,1.1,3.71c0,1.16-0.22,2.22-0.65,3.15
			c-0.76,1.66-2.07,2.49-3.92,2.49h-4.36V101.16z M141.67,110.85c0.49,0,0.89-0.05,1.21-0.16c0.56-0.19,1.03-0.57,1.39-1.12
			c0.29-0.44,0.49-1.01,0.62-1.7c0.07-0.41,0.11-0.8,0.11-1.15c0-1.36-0.26-2.41-0.79-3.16c-0.53-0.75-1.38-1.13-2.55-1.13h-2.58
			v8.41H141.67z"/>
		<path class="st0" d="M157.71,101.16h1.5v10.96h-1.5V101.16z"/>
		<path class="st0" d="M163.91,101.16h1.75l5.46,8.85v-8.85h1.42v10.96h-1.67l-5.54-8.84v8.84h-1.42V101.16z"/>
		<path class="st0" d="M178.2,108.58c0.03,0.62,0.17,1.13,0.42,1.51c0.47,0.73,1.31,1.09,2.51,1.09c0.54,0,1.03-0.08,1.47-0.24
			c0.85-0.31,1.28-0.86,1.28-1.66c0-0.6-0.18-1.02-0.54-1.28c-0.37-0.25-0.94-0.46-1.72-0.65l-1.44-0.34
			c-0.94-0.22-1.6-0.46-1.99-0.72c-0.68-0.46-1.01-1.14-1.01-2.05c0-0.98,0.33-1.79,0.99-2.42c0.66-0.63,1.6-0.95,2.82-0.95
			c1.12,0,2.07,0.28,2.85,0.83c0.78,0.55,1.17,1.44,1.17,2.66h-1.39c-0.07-0.59-0.23-1.04-0.46-1.35c-0.43-0.57-1.17-0.86-2.21-0.86
			c-0.84,0-1.44,0.18-1.81,0.55c-0.37,0.37-0.55,0.8-0.55,1.28c0,0.54,0.22,0.93,0.65,1.18c0.28,0.16,0.93,0.36,1.93,0.6l1.49,0.35
			c0.72,0.17,1.27,0.4,1.66,0.69c0.68,0.51,1.01,1.26,1.01,2.23c0,1.21-0.43,2.08-1.29,2.6s-1.86,0.78-3,0.78
			c-1.33,0-2.37-0.35-3.12-1.04c-0.75-0.69-1.12-1.63-1.11-2.81H178.2z"/>
		<path class="st0" d="M197.68,101.16v1.31h-3.69v9.65h-1.5v-9.65h-3.69v-1.31H197.68z"/>
		<path class="st0" d="M201.67,101.16h1.5v10.96h-1.5V101.16z"/>
		<path class="st0" d="M215.84,101.16v1.31h-3.69v9.65h-1.5v-9.65h-3.69v-1.31H215.84z"/>
		<path class="st0" d="M221.1,101.16v6.77c0,0.8,0.15,1.46,0.45,1.98c0.45,0.8,1.2,1.19,2.26,1.19c1.27,0,2.13-0.43,2.59-1.29
			c0.24-0.47,0.37-1.1,0.37-1.89v-6.77h1.5v6.15c0,1.35-0.18,2.38-0.55,3.11c-0.67,1.32-1.93,1.98-3.79,1.98
			c-1.86,0-3.12-0.66-3.78-1.98c-0.36-0.73-0.55-1.76-0.55-3.11v-6.15H221.1z"/>
		<path class="st0" d="M240.78,101.16v1.31h-3.69v9.65h-1.5v-9.65h-3.69v-1.31H240.78z"/>
		<path class="st0" d="M244.58,101.16h7.95v1.34h-6.51v3.33h6.01v1.27h-6.01v3.71h6.62v1.31h-8.06V101.16z"/>
	</g>
</g>
</svg>
