<?xml version="1.0" standalone="no"?>
<!DOCTYPE svg PUBLIC "-//W3C//DTD SVG 20010904//EN"
 "http://www.w3.org/TR/2001/REC-SVG-20010904/DTD/svg10.dtd">
<svg version="1.0" xmlns="http://www.w3.org/2000/svg"
 width="1904.000000pt" height="1904.000000pt" viewBox="0 0 1904.000000 1904.000000"
 preserveAspectRatio="xMidYMid meet">
<metadata>
Created by potrace 1.11, written by Peter Selinger 2001-2013
</metadata>
<g transform="translate(0.000000,1904.000000) scale(0.100000,-0.100000)"
fill="#000000" stroke="none">
<path d="M7250 15955 l0 -2276 33 1 c17 0 65 -1 104 -1 40 0 77 3 83 6 5 3 10
2 10 -3 0 -4 23 -6 50 -2 28 4 50 4 50 1 0 -7 278 -4 297 3 7 3 13 2 13 -2 0
-7 119 -6 153 2 9 2 17 1 17 -2 0 -6 78 -7 201 -2 24 1 49 1 54 0 21 -4 107 0
116 5 5 4 9 2 9 -3 0 -4 23 -6 50 -2 28 4 50 4 50 1 0 -7 278 -4 297 3 7 3 13
2 13 -2 0 -7 119 -6 153 2 9 2 17 1 17 -2 0 -7 161 -6 191 0 12 3 14 -129 17
-944 l2 -948 -990 0 -990 0 0 -2250 c0 -1237 0 -2253 -1 -2257 -1 -5 -1 -16 0
-25 1 -18 0 -18 156 -18 39 0 88 0 110 -1 22 0 47 0 55 0 46 2 175 -1 180 -4
3 -2 12 0 19 5 8 4 27 4 42 0 16 -5 29 -5 29 0 0 5 13 5 29 0 15 -4 34 -4 41
0 7 4 24 5 39 1 14 -3 40 -5 56 -4 17 2 48 3 70 2 38 -1 47 0 78 2 13 1 111 0
167 -2 19 -1 41 -1 48 0 6 1 18 1 25 2 12 1 114 0 152 -1 11 -1 27 -1 35 -1
90 2 122 1 128 -3 5 -3 14 -1 21 4 8 4 27 4 42 0 16 -5 29 -5 29 0 0 5 13 5
29 0 15 -4 34 -4 42 0 7 5 17 6 21 4 11 -7 157 -8 164 -1 3 3 19 1 35 -3 18
-5 29 -5 29 1 0 6 5 7 11 3 6 -3 31 -6 55 -6 l44 1 0 -944 0 -945 -990 0 -990
0 0 -2274 0 -2275 40 2 c22 2 40 0 40 -4 0 -3 18 -3 40 1 22 4 43 3 46 -1 3
-5 10 -7 15 -3 15 9 79 11 79 2 0 -3 12 -3 28 1 15 5 36 5 47 1 11 -4 24 -5
29 -2 8 4 119 6 141 2 6 -1 14 -2 19 -1 32 7 88 5 92 -1 3 -5 10 -6 15 -2 14
8 89 11 89 3 0 -4 18 -3 39 1 21 4 46 3 54 -2 9 -4 18 -5 21 0 4 6 60 8 92 1
5 -1 11 -1 14 1 13 5 80 4 80 -1 0 -3 20 -3 45 1 25 4 48 3 51 -2 3 -5 11 -5
17 -1 7 5 26 7 42 6 43 -4 65 -4 103 0 17 2 32 -1 32 -5 0 -5 8 -5 18 -1 15 7
108 9 137 3 6 -1 14 -2 19 -1 31 6 86 5 86 -1 0 -4 10 -4 22 1 13 4 35 5 50 0
16 -4 28 -5 28 -1 0 6 85 7 100 1 3 -1 10 0 15 1 27 6 77 5 81 -2 3 -4 15 -4
27 1 12 4 36 5 52 1 17 -3 51 -3 78 0 26 4 47 3 47 -2 0 -5 8 -5 18 -1 21 10
53 10 69 0 6 -4 14 -4 17 1 3 5 22 7 43 4 21 -2 43 -3 48 -3 108 5 158 5 162
-2 2 -4 9 -5 14 -2 15 10 90 11 95 3 3 -5 10 -6 15 -2 14 8 89 11 89 3 0 -4
18 -3 39 1 21 4 46 3 54 -2 9 -4 18 -5 21 0 4 6 60 8 92 1 5 -1 11 -1 14 1 15
5 80 4 80 -2 0 -4 6 -5 13 -3 22 9 108 11 113 3 3 -5 10 -6 15 -3 15 10 90 11
95 3 3 -5 10 -6 15 -2 14 8 89 11 89 3 0 -4 18 -3 39 1 21 4 46 3 54 -2 9 -4
18 -5 21 0 4 6 60 8 92 1 5 -1 11 -1 14 1 13 5 80 4 80 -1 0 -3 20 -3 45 1 25
4 48 3 51 -2 3 -5 11 -5 17 -1 7 5 26 7 42 6 43 -4 65 -4 103 0 17 2 32 -1 32
-5 0 -5 8 -5 18 -1 15 7 108 9 137 3 6 -1 14 -2 19 -1 31 6 86 5 86 -1 0 -4
10 -4 22 1 13 4 35 5 50 0 16 -4 28 -5 28 -1 0 6 106 7 120 2 3 -1 10 -1 15 0
27 6 75 5 75 -2 0 -4 10 -4 22 1 13 4 35 5 50 0 15 -4 30 -4 32 -1 2 4 4 35 4
69 0 34 3 66 6 72 4 5 2 12 -4 16 -6 4 -8 10 -6 14 3 4 5 29 6 57 1 78 2 448
1 462 -5 80 -5 101 1 124 3 15 3 30 -1 32 -7 5 -5 81 3 103 3 7 1 13 -5 13 -6
0 -8 4 -5 8 3 5 5 30 5 58 1 27 1 74 1 104 1 30 1 62 1 70 0 8 0 182 0 385 0
204 0 376 0 383 -1 6 -2 31 -4 55 -1 23 1 54 5 69 3 15 3 30 -1 32 -7 5 -5 81
3 103 3 7 1 13 -5 13 -6 0 -8 4 -5 8 3 5 5 30 5 58 1 27 1 74 1 104 1 30 1 60
1 65 -3 327 -1 546 4 554 3 6 1 11 -5 11 -6 0 -9 4 -6 8 6 9 7 66 5 199 -1 50
2 96 5 102 4 6 2 11 -4 11 -6 0 -9 4 -6 8 6 9 7 66 5 199 -1 50 2 96 5 102 4
6 2 11 -4 11 -6 0 -9 4 -6 8 6 9 7 66 5 199 -1 50 2 96 5 102 4 6 2 11 -4 11
-6 0 -9 4 -6 8 3 5 5 33 5 63 1 30 2 70 2 89 1 19 1 41 0 48 -5 59 -5 101 1
124 3 15 3 30 0 32 -4 2 -6 19 -5 38 2 33 2 54 3 116 l0 32 -990 0 -989 0 0
163 c0 89 0 167 -1 172 -2 6 -2 15 -1 20 2 13 2 728 0 735 -1 3 0 9 1 15 2 13
2 177 0 190 -1 6 -2 15 -1 20 1 6 2 137 1 292 l0 283 22 -1 c13 0 49 0 81 1
32 0 61 -1 65 -4 5 -3 14 -1 21 4 8 4 27 4 42 0 16 -5 29 -5 29 0 0 5 13 5 29
0 15 -4 34 -4 42 0 7 5 17 6 21 4 11 -7 157 -8 164 -1 3 3 19 1 35 -3 16 -5
29 -5 29 0 0 5 13 5 29 0 15 -4 34 -4 41 0 7 4 24 5 39 1 14 -3 40 -5 56 -4
17 2 48 3 70 2 38 -1 47 0 78 2 13 1 111 0 167 -2 19 -1 41 -1 48 0 6 1 18 1
25 2 12 1 114 0 152 -1 11 -1 27 -1 35 -1 90 2 122 1 128 -3 5 -3 14 -1 21 4
8 4 27 4 42 0 16 -5 29 -5 29 0 0 5 13 5 29 0 15 -4 34 -4 42 0 7 5 17 6 21 4
11 -7 157 -8 164 -1 3 3 19 1 35 -3 16 -5 29 -5 29 0 0 5 12 5 28 1 35 -9 86
0 90 17 1 7 2 23 2 35 0 12 0 47 1 77 0 68 0 55 -2 181 -1 59 2 112 5 118 4 6
2 11 -4 11 -6 0 -9 4 -6 8 6 9 7 66 5 199 -1 50 2 96 5 102 4 6 2 11 -4 11 -6
0 -9 4 -6 8 6 9 7 66 5 199 -1 50 2 96 5 102 4 6 2 11 -4 11 -6 0 -9 4 -6 8 6
9 7 66 5 199 -1 50 2 96 5 102 4 6 2 11 -4 11 -6 0 -9 4 -6 8 5 8 7 74 5 147
0 22 0 45 1 50 1 6 2 14 1 19 -1 5 -2 30 -1 55 0 25 1 55 0 66 -2 91 -1 116 5
125 3 5 1 10 -5 10 -6 0 -9 4 -6 8 3 5 5 30 5 58 1 27 1 74 1 104 1 30 1 62 1
70 0 8 0 110 0 225 0 116 0 216 0 223 -1 6 -2 31 -4 55 -1 23 1 54 5 69 3 15
3 30 -1 32 -7 5 -5 81 3 103 3 7 1 13 -5 13 -6 0 -8 4 -5 8 3 5 5 30 5 58 1
27 1 74 1 104 1 30 1 60 1 65 -1 130 -2 443 0 450 1 6 1 14 0 19 -1 5 -2 30
-1 55 0 25 1 55 0 66 -2 91 -1 116 5 125 3 5 1 10 -5 10 -6 0 -9 4 -6 8 3 5 5
30 5 58 1 27 1 74 1 104 1 30 1 62 1 70 0 8 0 38 0 65 0 28 0 56 0 63 -5 77
-5 101 1 124 3 15 3 30 -1 32 -7 5 -5 81 3 103 3 7 2 13 -3 13 -4 0 -5 23 -1
50 4 28 4 52 2 55 -3 3 -450 5 -993 5 l-989 0 1 358 c0 196 -1 362 -2 367 -1
6 -1 14 0 19 2 11 2 607 0 621 -1 6 -1 14 1 20 1 5 1 120 1 256 0 208 2 248
14 253 8 3 15 2 15 -2 0 -8 96 -6 117 2 7 3 13 2 13 -2 0 -6 75 -7 201 -2 24
1 49 1 54 0 21 -4 107 0 116 5 5 4 9 2 9 -3 0 -4 23 -6 50 -2 28 4 50 4 50 1
0 -7 278 -4 297 3 7 3 13 2 13 -2 0 -7 119 -6 153 2 9 2 17 1 17 -2 0 -6 78
-7 201 -2 24 1 49 1 54 0 21 -4 107 0 116 5 5 4 9 2 9 -3 0 -4 23 -6 50 -2 28
4 50 4 50 1 0 -7 278 -4 297 3 7 3 13 2 13 -2 0 -4 15 -7 32 -6 l33 1 3 64 c1
35 2 80 2 99 -2 81 -2 116 0 125 1 6 2 14 1 19 -1 5 -2 30 -1 55 0 25 1 55 0
66 -2 91 -1 116 5 125 3 5 1 10 -5 10 -6 0 -9 4 -6 8 3 5 5 30 5 58 1 27 1 74
1 104 1 30 1 62 1 70 0 8 0 110 0 225 0 116 0 216 0 223 -1 6 -2 31 -4 55 -1
23 1 54 5 69 3 15 3 30 -1 32 -7 5 -5 81 3 103 3 7 1 13 -5 13 -6 0 -8 4 -5 8
3 5 5 30 5 58 1 27 1 74 1 104 1 30 1 60 1 65 -1 130 -2 443 0 450 1 6 1 14 0
19 -1 5 -2 30 -1 55 0 25 1 55 0 66 -2 91 -1 116 5 125 3 5 1 10 -5 10 -6 0
-9 4 -6 8 5 8 7 56 6 150 0 23 0 57 0 75 0 17 0 52 -1 77 0 25 0 50 1 55 1 6
2 14 1 19 -1 5 -2 30 -1 55 0 25 1 55 0 66 -2 91 -1 116 5 125 3 5 1 10 -5 10
-6 0 -9 4 -6 8 3 5 5 30 5 58 1 27 1 74 1 104 1 30 1 62 1 70 0 8 0 110 0 225
0 116 0 216 0 223 -1 6 -2 31 -4 55 -1 23 1 54 5 69 3 15 3 30 -1 32 -7 5 -5
81 3 103 3 7 1 13 -5 13 -6 0 -8 4 -5 8 5 8 7 56 6 150 0 23 0 59 0 80 0 20
-1 80 -3 132 l-2 95 -2272 2 -2273 3 0 -2275z"/>
</g>
</svg>
